<?xml version="1.0" encoding="UTF-8"?>
<svg xmlns="http://www.w3.org/2000/svg" width="1200" height="942" viewBox="0 0 1200 942">
<rect width="100%" height="100%" fill="#ffffff"/>
<style>.title{font:700 28px Arial,sans-serif;fill:#1f2933}.subtitle{font:400 15px Arial,sans-serif;fill:#52616b}.axis{font:400 12px Arial,sans-serif;fill:#697985}.label{font:600 14px Arial,sans-serif;fill:#1f2933}.value{font:600 13px Arial,sans-serif;fill:#1f2933}.footer{font:400 12px Arial,sans-serif;fill:#697985}</style>
<text x="36" y="42" class="title">Comuni con piu&#x27; kebabbari censiti</text>
<text x="36" y="70" class="subtitle">Numero di kebabbari censiti</text>
<line x1="330.0" y1="120" x2="330.0" y2="870" stroke="#e4e9ed" stroke-width="1"/>
<text x="330.0" y="112" class="axis" text-anchor="middle">0</text>
<line x1="490.0" y1="120" x2="490.0" y2="870" stroke="#e4e9ed" stroke-width="1"/>
<text x="490.0" y="112" class="axis" text-anchor="middle">4</text>
<line x1="650.0" y1="120" x2="650.0" y2="870" stroke="#e4e9ed" stroke-width="1"/>
<text x="650.0" y="112" class="axis" text-anchor="middle">7</text>
<line x1="810.0" y1="120" x2="810.0" y2="870" stroke="#e4e9ed" stroke-width="1"/>
<text x="810.0" y="112" class="axis" text-anchor="middle">10</text>
<line x1="970.0" y1="120" x2="970.0" y2="870" stroke="#e4e9ed" stroke-width="1"/>
<text x="970.0" y="112" class="axis" text-anchor="middle">14</text>
<text x="312" y="165.0" class="label" text-anchor="end">Ancona (Ancona)</text>
<rect x="330" y="149.0" width="640.0" height="22" rx="3" fill="#e76f51"/>
<text x="980.0" y="165.0" class="value">14 locali | 0,1398 per 1.000</text>
<text x="312" y="201.0" class="label" text-anchor="end">Macerata (Macerata)</text>
<rect x="330" y="185.0" width="228.6" height="22" rx="3" fill="#e76f51"/>
<text x="568.6" y="201.0" class="value">5 locali | 0,1229 per 1.000</text>
<text x="312" y="237.0" class="label" text-anchor="end">Senigallia (Ancona)</text>
<rect x="330" y="221.0" width="182.9" height="22" rx="3" fill="#e76f51"/>
<text x="522.9" y="237.0" class="value">4 locali | 0,0913 per 1.000</text>
<text x="312" y="273.0" class="label" text-anchor="end">San Benedetto del Tronto (Ascoli Pi...</text>
<rect x="330" y="257.0" width="182.9" height="22" rx="3" fill="#e76f51"/>
<text x="522.9" y="273.0" class="value">4 locali | 0,0851 per 1.000</text>
<text x="312" y="309.0" class="label" text-anchor="end">Urbino (Pesaro e Urbino)</text>
<rect x="330" y="293.0" width="137.1" height="22" rx="3" fill="#e76f51"/>
<text x="477.1" y="309.0" class="value">3 locali | 0,2163 per 1.000</text>
<text x="312" y="345.0" class="label" text-anchor="end">Recanati (Macerata)</text>
<rect x="330" y="329.0" width="137.1" height="22" rx="3" fill="#e76f51"/>
<text x="477.1" y="345.0" class="value">3 locali | 0,1459 per 1.000</text>
<text x="312" y="381.0" class="label" text-anchor="end">Falconara Marittima (Ancona)</text>
<rect x="330" y="365.0" width="137.1" height="22" rx="3" fill="#e76f51"/>
<text x="477.1" y="381.0" class="value">3 locali | 0,1153 per 1.000</text>
<text x="312" y="417.0" class="label" text-anchor="end">Fabriano (Ancona)</text>
<rect x="330" y="401.0" width="137.1" height="22" rx="3" fill="#e76f51"/>
<text x="477.1" y="417.0" class="value">3 locali | 0,1054 per 1.000</text>
<text x="312" y="453.0" class="label" text-anchor="end">Civitanova Marche (Macerata)</text>
<rect x="330" y="437.0" width="137.1" height="22" rx="3" fill="#e76f51"/>
<text x="477.1" y="453.0" class="value">3 locali | 0,0715 per 1.000</text>
<text x="312" y="489.0" class="label" text-anchor="end">Ascoli Piceno (Ascoli Piceno)</text>
<rect x="330" y="473.0" width="137.1" height="22" rx="3" fill="#e76f51"/>
<text x="477.1" y="489.0" class="value">3 locali | 0,0664 per 1.000</text>
<text x="312" y="525.0" class="label" text-anchor="end">Porto Recanati (Macerata)</text>
<rect x="330" y="509.0" width="91.4" height="22" rx="3" fill="#e76f51"/>
<text x="431.4" y="525.0" class="value">2 locali | 0,1571 per 1.000</text>
<text x="312" y="561.0" class="label" text-anchor="end">Fano (Pesaro e Urbino)</text>
<rect x="330" y="545.0" width="91.4" height="22" rx="3" fill="#e76f51"/>
<text x="431.4" y="561.0" class="value">2 locali | 0,0334 per 1.000</text>
<text x="312" y="597.0" class="label" text-anchor="end">Camerino (Macerata)</text>
<rect x="330" y="581.0" width="45.7" height="22" rx="3" fill="#e76f51"/>
<text x="385.7" y="597.0" class="value">1 locali | 0,1685 per 1.000</text>
<text x="312" y="633.0" class="label" text-anchor="end">Pollenza (Macerata)</text>
<rect x="330" y="617.0" width="45.7" height="22" rx="3" fill="#e76f51"/>
<text x="385.7" y="633.0" class="value">1 locali | 0,1626 per 1.000</text>
<text x="312" y="669.0" class="label" text-anchor="end">Cartoceto (Pesaro e Urbino)</text>
<rect x="330" y="653.0" width="45.7" height="22" rx="3" fill="#e76f51"/>
<text x="385.7" y="669.0" class="value">1 locali | 0,1257 per 1.000</text>
<text x="312" y="705.0" class="label" text-anchor="end">Fermignano (Pesaro e Urbino)</text>
<rect x="330" y="689.0" width="45.7" height="22" rx="3" fill="#e76f51"/>
<text x="385.7" y="705.0" class="value">1 locali | 0,1209 per 1.000</text>
<text x="312" y="741.0" class="label" text-anchor="end">Fossombrone (Pesaro e Urbino)</text>
<rect x="330" y="725.0" width="45.7" height="22" rx="3" fill="#e76f51"/>
<text x="385.7" y="741.0" class="value">1 locali | 0,1108 per 1.000</text>
<text x="312" y="777.0" class="label" text-anchor="end">Matelica (Macerata)</text>
<rect x="330" y="761.0" width="45.7" height="22" rx="3" fill="#e76f51"/>
<text x="385.7" y="777.0" class="value">1 locali | 0,1108 per 1.000</text>
<text x="312" y="813.0" class="label" text-anchor="end">Montemarciano (Ancona)</text>
<rect x="330" y="797.0" width="45.7" height="22" rx="3" fill="#e76f51"/>
<text x="385.7" y="813.0" class="value">1 locali | 0,1018 per 1.000</text>
<text x="312" y="849.0" class="label" text-anchor="end">San Severino Marche (Macerata)</text>
<rect x="330" y="833.0" width="45.7" height="22" rx="3" fill="#e76f51"/>
<text x="385.7" y="849.0" class="value">1 locali | 0,0848 per 1.000</text>
<line x1="36" y1="886" x2="1164" y2="886" stroke="#e4e9ed" stroke-width="1"/>
<text x="36" y="908" class="footer">Note: stima OSM; popolazione ISTAT 2026; soglia conteggio medium+.</text>
<text x="36" y="926" class="footer">Fonti: OpenStreetMap/Overpass; ISTAT Demo POSAS 2026; ISTAT confini amministrativi 2026. Elaborazione di Nazareno Lecis</text>
</svg>