<?xml version="1.0" encoding="UTF-8"?>
<svg xmlns="http://www.w3.org/2000/svg" width="1200" height="978" viewBox="0 0 1200 978">
<rect width="100%" height="100%" fill="#ffffff"/>
<style>.title{font:700 28px Arial,sans-serif;fill:#1f2933}.subtitle{font:400 15px Arial,sans-serif;fill:#52616b}.axis{font:400 12px Arial,sans-serif;fill:#697985}.label{font:600 14px Arial,sans-serif;fill:#1f2933}.value{font:600 13px Arial,sans-serif;fill:#1f2933}.footer{font:400 12px Arial,sans-serif;fill:#697985}</style>
<text x="36" y="42" class="title">Comuni con piu&#x27; kebabbari rispetto ai ristoranti</text>
<text x="36" y="70" class="subtitle">Kebabbari per 100 ristoranti OSM</text>
<line x1="330.0" y1="120" x2="330.0" y2="870" stroke="#e4e9ed" stroke-width="1"/>
<text x="330.0" y="112" class="axis" text-anchor="middle">0</text>
<line x1="490.0" y1="120" x2="490.0" y2="870" stroke="#e4e9ed" stroke-width="1"/>
<text x="490.0" y="112" class="axis" text-anchor="middle">3</text>
<line x1="650.0" y1="120" x2="650.0" y2="870" stroke="#e4e9ed" stroke-width="1"/>
<text x="650.0" y="112" class="axis" text-anchor="middle">6</text>
<line x1="810.0" y1="120" x2="810.0" y2="870" stroke="#e4e9ed" stroke-width="1"/>
<text x="810.0" y="112" class="axis" text-anchor="middle">8</text>
<line x1="970.0" y1="120" x2="970.0" y2="870" stroke="#e4e9ed" stroke-width="1"/>
<text x="970.0" y="112" class="axis" text-anchor="middle">11</text>
<text x="312" y="165.0" class="label" text-anchor="end">Cartoceto (Pesaro e Urbino)</text>
<rect x="330" y="149.0" width="640.0" height="22" rx="3" fill="#bc6c25"/>
<text x="980.0" y="165.0" class="value">11,1111 per 100 ristoranti | 1/9</text>
<text x="312" y="201.0" class="label" text-anchor="end">Pollenza (Macerata)</text>
<rect x="330" y="185.0" width="640.0" height="22" rx="3" fill="#bc6c25"/>
<text x="980.0" y="201.0" class="value">11,1111 per 100 ristoranti | 1/9</text>
<text x="312" y="237.0" class="label" text-anchor="end">Monteprandone (Ascoli Piceno)</text>
<rect x="330" y="221.0" width="640.0" height="22" rx="3" fill="#bc6c25"/>
<text x="980.0" y="237.0" class="value">11,1111 per 100 ristoranti | 1/9</text>
<text x="312" y="273.0" class="label" text-anchor="end">Fermignano (Pesaro e Urbino)</text>
<rect x="330" y="257.0" width="576.0" height="22" rx="3" fill="#bc6c25"/>
<text x="916.0" y="273.0" class="value">10,0000 per 100 ristoranti | 1/10</text>
<text x="312" y="309.0" class="label" text-anchor="end">Falconara Marittima (Ancona)</text>
<rect x="330" y="293.0" width="421.5" height="22" rx="3" fill="#bc6c25"/>
<text x="761.5" y="309.0" class="value">7,3171 per 100 ristoranti | 3/41</text>
<text x="312" y="345.0" class="label" text-anchor="end">Recanati (Macerata)</text>
<rect x="330" y="329.0" width="421.5" height="22" rx="3" fill="#bc6c25"/>
<text x="761.5" y="345.0" class="value">7,3171 per 100 ristoranti | 3/41</text>
<text x="312" y="381.0" class="label" text-anchor="end">Matelica (Macerata)</text>
<rect x="330" y="365.0" width="411.4" height="22" rx="3" fill="#bc6c25"/>
<text x="751.4" y="381.0" class="value">7,1429 per 100 ristoranti | 1/14</text>
<text x="312" y="417.0" class="label" text-anchor="end">San Severino Marche (Macerata)</text>
<rect x="330" y="401.0" width="411.4" height="22" rx="3" fill="#bc6c25"/>
<text x="751.4" y="417.0" class="value">7,1429 per 100 ristoranti | 1/14</text>
<text x="312" y="453.0" class="label" text-anchor="end">Macerata (Macerata)</text>
<rect x="330" y="437.0" width="374.0" height="22" rx="3" fill="#bc6c25"/>
<text x="714.0" y="453.0" class="value">6,4935 per 100 ristoranti | 5/77</text>
<text x="312" y="489.0" class="label" text-anchor="end">Ancona (Ancona)</text>
<rect x="330" y="473.0" width="349.1" height="22" rx="3" fill="#bc6c25"/>
<text x="689.1" y="489.0" class="value">6,0606 per 100 ristoranti | 14/231</text>
<text x="312" y="525.0" class="label" text-anchor="end">Fabriano (Ancona)</text>
<rect x="330" y="509.0" width="338.8" height="22" rx="3" fill="#bc6c25"/>
<text x="678.8" y="525.0" class="value">5,8824 per 100 ristoranti | 3/51</text>
<text x="312" y="561.0" class="label" text-anchor="end">Urbino (Pesaro e Urbino)</text>
<rect x="330" y="545.0" width="308.6" height="22" rx="3" fill="#bc6c25"/>
<text x="648.6" y="561.0" class="value">5,3571 per 100 ristoranti | 3/56</text>
<text x="312" y="597.0" class="label" text-anchor="end">San Benedetto del Tronto (Ascoli Pi...</text>
<rect x="330" y="581.0" width="291.6" height="22" rx="3" fill="#bc6c25"/>
<text x="631.6" y="597.0" class="value">5,0633 per 100 ristoranti | 4/79</text>
<text x="312" y="633.0" class="label" text-anchor="end">Colli al Metauro (Pesaro e Urbino)</text>
<rect x="330" y="617.0" width="288.0" height="22" rx="3" fill="#bc6c25"/>
<text x="628.0" y="633.0" class="value">5,0000 per 100 ristoranti | 1/20</text>
<text x="312" y="669.0" class="label" text-anchor="end">Chiaravalle (Ancona)</text>
<rect x="330" y="653.0" width="288.0" height="22" rx="3" fill="#bc6c25"/>
<text x="628.0" y="669.0" class="value">5,0000 per 100 ristoranti | 1/20</text>
<text x="312" y="705.0" class="label" text-anchor="end">Camerino (Macerata)</text>
<rect x="330" y="689.0" width="288.0" height="22" rx="3" fill="#bc6c25"/>
<text x="628.0" y="705.0" class="value">5,0000 per 100 ristoranti | 1/20</text>
<text x="312" y="741.0" class="label" text-anchor="end">Fossombrone (Pesaro e Urbino)</text>
<rect x="330" y="725.0" width="250.4" height="22" rx="3" fill="#bc6c25"/>
<text x="590.4" y="741.0" class="value">4,3478 per 100 ristoranti | 1/23</text>
<text x="312" y="777.0" class="label" text-anchor="end">Potenza Picena (Macerata)</text>
<rect x="330" y="761.0" width="230.4" height="22" rx="3" fill="#bc6c25"/>
<text x="570.4" y="777.0" class="value">4,0000 per 100 ristoranti | 1/25</text>
<text x="312" y="813.0" class="label" text-anchor="end">Montemarciano (Ancona)</text>
<rect x="330" y="797.0" width="221.5" height="22" rx="3" fill="#bc6c25"/>
<text x="561.5" y="813.0" class="value">3,8462 per 100 ristoranti | 1/26</text>
<text x="312" y="849.0" class="label" text-anchor="end">Senigallia (Ancona)</text>
<rect x="330" y="833.0" width="207.6" height="22" rx="3" fill="#bc6c25"/>
<text x="547.6" y="849.0" class="value">3,6036 per 100 ristoranti | 4/111</text>
<line x1="36" y1="886" x2="1164" y2="886" stroke="#e4e9ed" stroke-width="1"/>
<text x="36" y="908" class="footer">Note: stima OSM; popolazione ISTAT 2026; soglia conteggio medium+.</text>
<text x="36" y="926" class="footer">Denominatore ristoranti OSM: amenity=restaurant, fast_food, food_court.</text>
<text x="36" y="944" class="footer">Sono inclusi solo i comuni con almeno 1 kebab censito.</text>
<text x="36" y="962" class="footer">Fonti: OpenStreetMap/Overpass; ISTAT Demo POSAS 2026; ISTAT confini amministrativi 2026. Elaborazione di Nazareno Lecis</text>
</svg>